<svg id="visual" viewBox="0 0 900 600" width="900" height="600" xmlns="http://www.w3.org/2000/svg" xmlns:xlink="http://www.w3.org/1999/xlink" version="1.1"><path d="M292 600L169 600L169 533L205 533L205 467L280 467L280 400L275 400L275 333L345 333L345 267L254 267L254 200L181 200L181 133L353 133L353 67L194 67L194 0L900 0L900 67L900 67L900 133L900 133L900 200L900 200L900 267L900 267L900 333L900 333L900 400L900 400L900 467L900 467L900 533L900 533L900 600L900 600Z" fill="#f0f8ff"></path><path d="M508 600L509 600L509 533L498 533L498 467L498 467L498 400L565 400L565 333L384 333L384 267L481 267L481 200L443 200L443 133L532 133L532 67L475 67L475 0L900 0L900 67L900 67L900 133L900 133L900 200L900 200L900 267L900 267L900 333L900 333L900 400L900 400L900 467L900 467L900 533L900 533L900 600L900 600Z" fill="#ebb2f0"></path><path d="M736 600L682 600L682 533L762 533L762 467L638 467L638 400L684 400L684 333L687 333L687 267L735 267L735 200L613 200L613 133L736 133L736 67L660 67L660 0L900 0L900 67L900 67L900 133L900 133L900 200L900 200L900 267L900 267L900 333L900 333L900 400L900 400L900 467L900 467L900 533L900 533L900 600L900 600Z" fill="#ff604f"></path></svg>